# xmcd CD database file
#
# Track frame offsets:
#	150
#	17515
#	33912
#	53625
#	68912
#	83850
#	102350
#	122337
#	142425
#	157737
#
# Disc length: 2339 seconds
#
# Revision: 19
# Processed by: cddbd v1.5.2PL0 Copyright (c) Steve Scherf et al.
# Submitted via: CDex 1.81
#
DISCID=7909210a
DTITLE=Modern Talking - Let's Talk About Love (The 2nd Album)
DYEAR=1985
DGENRE=Eurodance
TTITLE0=Cheri Cheri Lady
TTITLE1=With A Little Love
TTITLE2=Wild Wild Water
TTITLE3=You're The Lady Of My Heart
TTITLE4=Just Like An Angel
TTITLE5=Heaven Will Know
TTITLE6=Love Don't Live Here Anymore
TTITLE7=Why Did You Do It Just Tonight
TTITLE8=Don't Give Up
TTITLE9=Let's Talk About Love
EXTD=YEAR: 1985
EXTT0=
EXTT1=
EXTT2=
EXTT3=
EXTT4=
EXTT5=
EXTT6=
EXTT7=
EXTT8=
EXTT9=
PLAYORDER=
